<?xml version="1.0" encoding="utf-8"?>
<svg viewBox="0 -4.642 222.825 324.564" xmlns="http://www.w3.org/2000/svg">
  <path fill="#000000" d="M 178.632 25.182 C 195.948 45.67 207.163 76.583 212.894 108.596 C 218.749 140.606 219.125 173.718 213.889 206.643 C 208.782 239.386 198.066 271.764 180.625 291.518 C 163.058 311.275 138.762 318.409 115.088 317.127 C 91.416 315.848 68.491 306.153 49.054 287.313 C 29.617 268.471 13.669 240.484 6.569 208.29 C -0.659 176.094 0.96 139.877 9.31 108.047 C 17.658 76.401 32.733 49.328 51.421 29.389 C 70.11 9.45 92.288 -3.355 115.088 -4.634 C 137.889 -5.915 161.312 4.512 178.632 25.182 Z" style=""/>
</svg>