<svg xmlns="http://www.w3.org/2000/svg" viewBox="0 0 156.13 160.73"><defs><style>.cls-1{fill:#fff;}.cls-2{fill:#27272f;}.cls-3{fill:red;stroke:#000;stroke-miterlimit:10;stroke-width:0.25px;}</style></defs><title>iconoBlanco</title><g id="Router"><g id="tubo_copy" data-name="tubo copy"><path class="cls-1" d="M131.93,106.3c0-13.37-1.09-63.65-1.09-63.65s.17-6,2.63-7.48c1.81-1.1,3.11,3.07,3.29,6.81.59,11.64.6,67.26.6,67.26" transform="translate(-7.02 -11.88)"/></g><g id="tubo"><path class="cls-1" d="M122,112.48c2.73-1.69,11.56-7.23,11.56-7.23s1.32-.6,2.9,1.31c1.17,1.41,1,3,.32,3.67-2.08,2-11.44,7.83-11.44,7.83" transform="translate(-7.02 -11.88)"/><ellipse class="cls-2" cx="126.05" cy="117.4" rx="2.83" ry="3.31" transform="translate(-41.17 42.23) rotate(-21.41)"/></g></g><g id="Caja"><path class="cls-1" d="M62.63,172.39c.1,3-55.58-25.34-55.61-28.77V133.37c10.44-6.8,55.7,15.42,55.7,28.67Z" transform="translate(-7.02 -11.88)"/><path class="cls-1" d="M7,133.37C8.58,128.19,85.28,98,85.28,98c11.3-5,28.73,5.2,30.25,6,2.1,1.09,25.45,13,25.45,22.69L62.72,162s-.39-10.59-25.07-22.48C14,128.17,7,133.37,7,133.37Z" transform="translate(-7.02 -11.88)"/><polygon class="cls-1" points="55.62 160.51 55.7 150.16 133.96 114.73 133.88 125.09 55.62 160.51"/><path class="cls-3" d="M54.11,158.92" transform="translate(-7.02 -11.88)"/><path class="cls-3" d="M-1.59,130.25" transform="translate(-7.02 -11.88)"/><g id="Layer_13" data-name="Layer 13"><path class="cls-1" d="M53.42,157.58h0c-1.65-.85-1.65-.85-1.65,2.48h0c0,3,0,3,1.65,3.9h0c1.64.85,1.64.85,1.64-2.73h0C55.1,158.44,55.1,158.44,53.42,157.58Z" transform="translate(-7.02 -11.88)"/><path class="cls-1" d="M33.56,147.33h0c-1.65-.85-1.65-.85-1.65,2.48h0c0,3,0,3,1.65,3.9h0c1.64.85,1.64.85,1.64-2.73h0C35.24,148.19,35.24,148.19,33.56,147.33Z" transform="translate(-7.02 -11.88)"/><path class="cls-1" d="M27.85,144.26h0c-1.65-.85-1.65-.85-1.65,2.48h0c0,3,0,3,1.65,3.9h0c1.64.85,1.64.85,1.64-2.73h0C29.54,145.12,29.54,145.12,27.85,144.26Z" transform="translate(-7.02 -11.88)"/><path class="cls-1" d="M22.15,141.21h0c-1.65-.85-1.65-.85-1.65,2.48h0c0,3,0,3,1.65,3.9h0c1.64.85,1.64.85,1.64-2.73h0C23.83,142.08,23.83,142.08,22.15,141.21Z" transform="translate(-7.02 -11.88)"/><path class="cls-1" d="M16.39,138.15h0c-1.65-.85-1.65-.85-1.65,2.48h0c0,3,0,3,1.65,3.9h0c1.64.85,1.64.85,1.64-2.73h0C18.07,139,18.07,139,16.39,138.15Z" transform="translate(-7.02 -11.88)"/></g></g><g id="wifi1"><path id="path3824" class="cls-1" d="M161.22,52.83a21.85,21.85,0,0,0,.53-16.6l-3.61.6c1.85,3.87,1.86,9.24-.38,14.39s-6.13,8.75-10.19,10l1.94,3.22A21.86,21.86,0,0,0,161.22,52.83Z" transform="translate(-7.02 -11.88)"/><path id="path3822" class="cls-1" d="M146.53,46.08a10.42,10.42,0,0,0,.37-7.38l-3.22.53a8,8,0,0,1-3.81,9.27l1.69,2.79A10.42,10.42,0,0,0,146.53,46.08Z" transform="translate(-7.02 -11.88)"/><path id="path3814" class="cls-1" d="M153.82,49.66a15.5,15.5,0,0,0,.4-12.18l-3.81.63a11.5,11.5,0,0,1,.1,10.11,11.76,11.76,0,0,1-6.8,6.62l2,3.23A15.69,15.69,0,0,0,153.82,49.66Z" transform="translate(-7.02 -11.88)"/></g><g id="wifi2"><path id="path3824-2" data-name="path3824" class="cls-1" d="M109.1,22.11a21.85,21.85,0,0,0-2.44,16.42l3.66-.18c-1.4-4.05-.78-9.4,2-14.25s7.09-8,11.28-8.81l-1.56-3.42A21.86,21.86,0,0,0,109.1,22.11Z" transform="translate(-7.02 -11.88)"/><path id="path3814-2" data-name="path3814" class="cls-1" d="M116.09,26.11a15.5,15.5,0,0,0-1.8,12.06l3.86-.19a11.5,11.5,0,0,1,1.07-10.05,11.76,11.76,0,0,1,7.52-5.8l-1.57-3.43A15.69,15.69,0,0,0,116.09,26.11Z" transform="translate(-7.02 -11.88)"/><path id="path3822-2" data-name="path3822" class="cls-1" d="M122.91,30.51a10.42,10.42,0,0,0-1.22,7.29l3.26-.16a8,8,0,0,1,4.85-8.77l-1.35-3A10.42,10.42,0,0,0,122.91,30.51Z" transform="translate(-7.02 -11.88)"/></g><g id="L1"><polygon class="cls-1" points="14.86 116.72 56.86 134.97 56.86 128.47 14.86 110.47 14.86 112.22 55.23 129.22 55.23 132.97 14.86 115.35 14.86 116.72"/><polygon class="cls-1" points="117.23 109.1 56.86 134.97 56.86 128.47 117.23 103.35 117.23 109.1"/><polygon class="cls-1" points="14.86 110.47 56.86 128.47 117.23 103.35 79.86 90.35 14.86 110.47"/><polygon class="cls-1" points="14.86 112.22 14.86 115.35 55.23 132.97 55.23 129.22 14.86 112.22"/></g><g id="L2"><polygon class="cls-1" points="23.23 109.99 23.23 108.37 55.48 122.12 55.48 109.99 23.23 97.24 23.23 95.99 57.11 109.06 57.11 124.74 23.23 109.99"/><polygon class="cls-1" points="24.36 97.69 24.36 108.85 55.48 122.12 55.48 109.99 24.36 97.69"/><polygon class="cls-1" points="57.11 109.06 57.11 124.74 108.23 102.74 108.23 88.95 57.11 109.06"/><polyline class="cls-1" points="57.11 109.06 23.23 95.99 76.89 79.45 108.23 88.95"/></g><g id="L3"><polygon class="cls-1" points="26.25 93.66 26.25 91.91 58.62 104.66 58.62 97.69 26.25 85.53 26.25 83.66 60.12 95.99 60.12 106.85 26.25 93.66"/><polyline class="cls-1" points="27.13 92.26 27.13 85.87 58.62 97.69 58.62 104.66 27.13 92.26"/><polyline class="cls-1" points="60.12 106.85 114.12 85.16 114.12 75.03 60.12 95.99 60.12 106.85"/><polyline class="cls-1" points="114.12 75.03 60.12 95.99 26.25 83.66 79.45 65.15 114.12 75.03"/></g><g id="gorro"><path class="cls-1" d="M54.3,89.75l0-16.18L76.07,83.81,76,100.75s-4,.82-12-2.58S54.3,89.75,54.3,89.75Z" transform="translate(-7.02 -11.88)"/><path class="cls-1" d="M77.15,100.63A42.73,42.73,0,0,0,88.2,98.15a22.92,22.92,0,0,0,9.75-6.91V74.4l-20.8,9.92v16.31" transform="translate(-7.02 -11.88)"/><polygon class="cls-1" points="69.06 71.98 70.14 72.44 70.14 88.72 68.95 88.84 69.06 71.98"/><polygon class="cls-1" points="25.18 53.51 25.18 50.69 70.13 69.86 70.13 72.44 25.18 53.51"/><polyline class="cls-1" points="70.13 72.44 112.93 54.06 112.93 51.44 70.13 69.86 70.13 72.44"/><polyline class="cls-1" points="25.18 50.69 68.95 32.69 112.93 51.44 70.13 69.86 25.18 50.69"/></g><g id="hilo"><polygon class="cls-1" points="69.06 51.07 69.06 49.46 100.28 56.35 98.98 57.09 69.06 51.07"/><polygon class="cls-1" points="99.48 78.59 98.98 57.09 100.28 56.35 100.36 78.59 99.48 78.59"/><path class="cls-1" d="M106.08,90.64c-.65.53-.1,2.25-.58,4-.4,1.47-.88,1.1-1.08,2.39a3.21,3.21,0,0,0,1.75,3.42c1.62.62,3.82-.64,3.83-1.92,0-2.42-.83-2.29-1.33-3.92-.29-1,.47-1.41.25-2.5a2.24,2.24,0,0,0-1-1.67A1.79,1.79,0,0,0,106.08,90.64Z" transform="translate(-7.02 -11.88)"/></g><g id="Nombre"><path class="cls-1" d="M70.52,158.52c0,8.07-1.54,10.5,4.47,7.8l6.42-3.06c3-1.22,2.73-2.83,2.73-10.9,0,0-.89-5-7.05-10.28l-1.7.77a20,20,0,0,1,6.84,10.28c-.06,8.19.81,7.8-4.14,10-7.28,3.29-5.65,2.55-5.63-5.53a19.8,19.8,0,0,0-6.1-10.7l-1.85.84A19.67,19.67,0,0,1,70.52,158.52Z" transform="translate(-7.02 -11.88)"/><path class="cls-1" d="M85.6,161.5v-9.8s.22-1.9-2.55-5l1.22-.58a7.88,7.88,0,0,1,1.31,1.41c.06-2.21,2.12-3,3.75-3.71,3.93-1.77,5-1.48,7.34,2.9.48.92,0,9.82,0,9.82l-1.54.69s.35-9.19,0-9.82c-2-3.62-3.18-2.68-5.07-1.94-4.38,1.73-2.73,3.45-2.73,5.47v9.82Z" transform="translate(-7.02 -11.88)"/><polygon class="cls-1" points="91.21 143.91 91.21 134.11 92.66 133.45 92.66 143.26 91.21 143.91"/><path class="cls-1" d="M98.23,146A19.3,19.3,0,0,0,95,141.23l1.53-.69a13.59,13.59,0,0,1,3.17,4.8Z" transform="translate(-7.02 -11.88)"/><path class="cls-1" d="M94.15,140.29l1.49-.67a5.48,5.48,0,0,0-1.21-1.44l-1.49.67A5.68,5.68,0,0,1,94.15,140.29Z" transform="translate(-7.02 -11.88)"/><path class="cls-1" d="M101.24,154.43V144.6c-.69-3-3.28-6.81-6.73-10.4l2-.71c9.55,3.24,10.32,4.2,12.17,7.76l2.62,5.88v-7c-.91-3.79-3.5-6.3-7.42-9.68l1.85-.67c4.67,4,6.84,6.8,7.39,9.5v9.83l-2.5,1.13L107.08,142c-1.46-3.28-5.26-5-9.28-6.13,0,0,2.66.94,5.27,7.94l0,9.8Z" transform="translate(-7.02 -11.88)"/><path class="cls-1" d="M114.52,146.7v-8.05c-.17-2.19-1-2.67-.84-3.88.27-2.11,2.94-3.31,4.57-4,3.93-1.77,5.16-1.37,7.34,2.9a7.64,7.64,0,0,1-.09,3.29c-.42.41-9.24,4.16-9.24,4.16v-1.69s7.55-3.15,7.79-3.51a2.55,2.55,0,0,0,0-1.56c-2-3.62-3.22-2.77-5.07-1.94-5.7,2.56-2.71,2.76-2.73,5.47v8.07l9.47-4.44v1.88l-9.47,4.3C114,148.65,114.59,147.34,114.52,146.7Z" transform="translate(-7.02 -11.88)"/><path class="cls-1" d="M129.94,139.64c0,1.72,1.47,1.06,1.47,1.06l3.52-1.59,0-1.73-2.9,1.32a.32.32,0,0,1-.46-.3l.22-7.72a12.59,12.59,0,0,0-1.6-3.39l3.1-1.4a4,4,0,0,0-1.17-1.47l-2.95,1.34a35.83,35.83,0,0,0-4.09-4.81l-1.58.7a41.92,41.92,0,0,1,3.92,4.9l-2.51,1.13a5.46,5.46,0,0,1,.93,1.64l2.58-1.24a14.86,14.86,0,0,1,1.62,3.33Z" transform="translate(-7.02 -11.88)"/></g></svg>