<?xml version="1.0" encoding="UTF-8" standalone="no"?>
<svg
   xmlns:dc="http://purl.org/dc/elements/1.1/"
   xmlns:cc="http://creativecommons.org/ns#"
   xmlns:rdf="http://www.w3.org/1999/02/22-rdf-syntax-ns#"
   xmlns:svg="http://www.w3.org/2000/svg"
   xmlns="http://www.w3.org/2000/svg"
   viewBox="0 0 232.88933 236.444"
   height="236.444"
   width="232.88933"
   xml:space="preserve"
   id="svg2"
   version="1.1"><metadata
     id="metadata8"><rdf:RDF><cc:Work
         rdf:about=""><dc:format>image/svg+xml</dc:format><dc:type
           rdf:resource="http://purl.org/dc/dcmitype/StillImage" /></cc:Work></rdf:RDF></metadata><defs
     id="defs6"><clipPath
       id="clipPath18"
       clipPathUnits="userSpaceOnUse"><path
         id="path16"
         d="M 0,177.333 H 174.667 V 0 H 0 Z" /></clipPath><clipPath
       id="clipPath38"
       clipPathUnits="userSpaceOnUse"><path
         id="path36"
         d="M 0,177.333 H 174.667 V 0 H 0 Z" /></clipPath><clipPath
       id="clipPath78"
       clipPathUnits="userSpaceOnUse"><path
         id="path76"
         d="M 0,177.333 H 174.667 V 0 H 0 Z" /></clipPath><clipPath
       id="clipPath98"
       clipPathUnits="userSpaceOnUse"><path
         id="path96"
         d="M 0,177.333 H 174.667 V 0 H 0 Z" /></clipPath><clipPath
       id="clipPath166"
       clipPathUnits="userSpaceOnUse"><path
         id="path164"
         d="M 0,177.333 H 174.667 V 0 H 0 Z" /></clipPath><clipPath
       id="clipPath206"
       clipPathUnits="userSpaceOnUse"><path
         id="path204"
         d="M 0,177.333 H 174.667 V 0 H 0 Z" /></clipPath><clipPath
       id="clipPath218"
       clipPathUnits="userSpaceOnUse"><path
         id="path216"
         d="M 0,177.333 H 174.667 V 0 H 0 Z" /></clipPath></defs><g
     transform="matrix(1.3333333,0,0,-1.3333333,0,236.444)"
     id="g10"><g
       id="g12"><g
         clip-path="url(#clipPath18)"
         id="g14"><g
           transform="translate(131.9287,71.03)"
           id="g20"><path
             id="path22"
             style="fill:#27272f;fill-opacity:1;fill-rule:nonzero;stroke:none"
             d="m 0,0 c -0.019,13.366 -1.092,63.648 -1.092,63.648 0,0 0.172,5.99 2.629,7.477 1.816,1.097 3.107,-3.068 3.295,-6.812 C 5.421,52.677 5.428,-2.946 5.428,-2.946" /></g><g
           transform="translate(122.0479,64.8483)"
           id="g24"><path
             id="path26"
             style="fill:#27272f;fill-opacity:1;fill-rule:nonzero;stroke:none"
             d="m 0,0 c 2.735,1.687 11.559,7.235 11.559,7.235 0,0 1.318,0.602 2.902,-1.311 C 15.63,4.512 15.446,2.889 14.775,2.259 12.692,0.301 3.336,-5.569 3.336,-5.569" /></g><g
           transform="translate(128.6914,60.9626)"
           id="g28"><path
             id="path30"
             style="fill:#27272f;fill-opacity:1;fill-rule:nonzero;stroke:none"
             d="m 0,0 c 0.667,-1.7 0.026,-3.542 -1.431,-4.113 -1.457,-0.572 -3.177,0.344 -3.844,2.045 -0.667,1.7 -0.027,3.542 1.43,4.113 C -2.388,2.616 -0.666,1.7 0,0" /></g></g></g><g
       id="g32"><g
         clip-path="url(#clipPath38)"
         id="g34"><g
           transform="translate(62.6299,4.9391)"
           id="g40"><path
             id="path42"
             style="fill:#13131b;fill-opacity:1;fill-rule:nonzero;stroke:none"
             d="M 0,0 C 0.098,-2.964 -55.582,25.337 -55.615,28.771 V 39.026 C -45.172,45.826 0.088,23.607 0.088,10.354 Z" /></g><g
           transform="translate(7.0151,43.9655)"
           id="g44"><path
             id="path46"
             style="fill:#46464e;fill-opacity:1;fill-rule:nonzero;stroke:none"
             d="m 0,0 c 1.567,5.175 78.267,35.381 78.267,35.381 11.3,5.044 28.734,-5.202 30.248,-5.985 2.101,-1.086 25.448,-12.959 25.454,-22.687 L 55.703,-28.673 c 0,0 -0.386,10.592 -25.073,22.484 C 6.985,5.201 0,0 0,0" /></g><g
           transform="translate(62.6299,4.9391)"
           id="g48"><path
             id="path50"
             style="fill:#27272f;fill-opacity:1;fill-rule:nonzero;stroke:none"
             d="M 0,0 0.088,10.354 78.349,45.78 78.261,35.426 Z" /></g><g
           transform="translate(53.418,19.7585)"
           id="g52"><path
             id="path54"
             style="fill:#a9ee70;fill-opacity:1;fill-rule:nonzero;stroke:none"
             d="m 0,0 v 0 c -1.653,0.852 -1.653,0.852 -1.653,-2.481 0,-3.05 0,-3.05 1.653,-3.902 1.636,-0.85 1.636,-0.85 1.636,2.729 C 1.681,-0.865 1.681,-0.865 0,0" /></g><g
           transform="translate(33.5566,30.0085)"
           id="g56"><path
             id="path58"
             style="fill:#a9ee70;fill-opacity:1;fill-rule:nonzero;stroke:none"
             d="m 0,0 v 0 c -1.653,0.852 -1.653,0.852 -1.653,-2.481 0,-3.05 0,-3.05 1.653,-3.902 1.636,-0.85 1.636,-0.85 1.636,2.729 C 1.68,-0.865 1.68,-0.865 0,0" /></g><g
           transform="translate(27.855,33.0759)"
           id="g60"><path
             id="path62"
             style="fill:#a9ee70;fill-opacity:1;fill-rule:nonzero;stroke:none"
             d="m 0,0 v 0 c -1.654,0.852 -1.654,0.852 -1.654,-2.481 0,-3.05 0,-3.05 1.654,-3.902 1.636,-0.85 1.636,-0.85 1.636,2.729 C 1.68,-0.865 1.68,-0.865 0,0" /></g><g
           transform="translate(22.1533,36.1208)"
           id="g64"><path
             id="path66"
             style="fill:#a9ee70;fill-opacity:1;fill-rule:nonzero;stroke:none"
             d="m 0,0 v 0 c -1.654,0.852 -1.654,0.852 -1.654,-2.481 0,-3.05 0,-3.05 1.654,-3.902 1.636,-0.85 1.636,-0.85 1.636,2.729 C 1.68,-0.865 1.68,-0.865 0,0" /></g><g
           transform="translate(16.3906,39.1833)"
           id="g68"><path
             id="path70"
             style="fill:#a9ee70;fill-opacity:1;fill-rule:nonzero;stroke:none"
             d="m 0,0 v 0 c -1.653,0.852 -1.653,0.852 -1.653,-2.48 0,-3.05 0,-3.05 1.653,-3.903 1.636,-0.85 1.636,-0.85 1.636,2.729 C 1.68,-0.865 1.68,-0.865 0,0" /></g></g></g><g
       id="g72"><g
         clip-path="url(#clipPath78)"
         id="g74"><g
           transform="translate(161.2217,124.507)"
           id="g80"><path
             id="path82"
             style="fill:#1b84db;fill-opacity:1;fill-rule:nonzero;stroke:none"
             d="m 0,0 c 2.449,5.619 2.474,11.614 0.533,16.597 l -3.611,-0.6 C -1.224,12.131 -1.217,6.754 -3.459,1.607 -5.685,-3.499 -9.584,-7.14 -13.645,-8.44 l 1.942,-3.216 C -6.77,-9.67 -2.434,-5.585 0,0" /></g><g
           transform="translate(146.5303,131.2526)"
           id="g84"><path
             id="path86"
             style="fill:#1b84db;fill-opacity:1;fill-rule:nonzero;stroke:none"
             d="m 0,0 c 1.06,2.432 1.122,5.047 0.368,7.385 l -3.22,-0.534 c 0.517,-1.74 0.448,-3.666 -0.335,-5.462 -0.735,-1.686 -1.98,-2.99 -3.476,-3.81 l 1.687,-2.791 C -2.829,-4.159 -1.031,-2.366 0,0" /></g><g
           transform="translate(153.8174,127.6691)"
           id="g88"><path
             id="path90"
             style="fill:#1b84db;fill-opacity:1;fill-rule:nonzero;stroke:none"
             d="M 0,0 C 1.862,4.275 1.887,8.769 0.401,12.184 L -3.41,11.551 c 1.524,-2.678 1.67,-6.494 0.096,-10.107 -1.457,-3.345 -4.048,-5.729 -6.805,-6.625 l 1.95,-3.228 C -4.841,-7.069 -1.778,-4.08 0,0" /></g></g></g><g
       id="g92"><g
         clip-path="url(#clipPath98)"
         id="g94"><g
           transform="translate(109.0967,155.2223)"
           id="g100"><path
             id="path102"
             style="fill:#1b84db;fill-opacity:1;fill-rule:nonzero;stroke:none"
             d="m 0,0 c -3.08,-5.299 -3.796,-11.252 -2.443,-16.425 l 3.657,0.18 c -1.398,4.053 -0.784,9.396 2.036,14.249 2.8,4.816 7.094,7.983 11.276,8.807 l -1.557,3.418 C 7.839,8.825 3.062,5.268 0,0" /></g><g
           transform="translate(116.0879,151.2277)"
           id="g104"><path
             id="path106"
             style="fill:#1b84db;fill-opacity:1;fill-rule:nonzero;stroke:none"
             d="m 0,0 c -2.344,-4.032 -2.886,-8.493 -1.805,-12.056 l 3.86,0.189 c -1.205,2.836 -0.91,6.643 1.07,10.051 1.833,3.154 4.682,5.223 7.522,5.796 L 9.083,7.412 C 5.622,6.464 2.235,3.847 0,0" /></g><g
           transform="translate(122.9121,146.8278)"
           id="g108"><path
             id="path110"
             style="fill:#1b84db;fill-opacity:1;fill-rule:nonzero;stroke:none"
             d="m 0,0 c -1.333,-2.293 -1.696,-4.883 -1.217,-7.293 l 3.26,0.159 c -0.313,1.788 -0.022,3.693 0.963,5.387 0.925,1.59 2.311,2.742 3.891,3.384 L 5.544,4.604 C 3.29,3.805 1.297,2.231 0,0" /></g></g></g><g
       transform="translate(21.875,48.7292)"
       id="g112"><path
         id="path114"
         style="fill:#392791;fill-opacity:1;fill-rule:nonzero;stroke:none"
         d="m 0,0 42,-18.25 v 6.5 L 0,6.25 V 4.5 l 40.375,-17 v -3.75 L 0,1.375 Z" /></g><g
       transform="translate(124.25,56.3542)"
       id="g116"><path
         id="path118"
         style="fill:#392791;fill-opacity:1;fill-rule:nonzero;stroke:none"
         d="m 0,0 -60.375,-25.875 v 6.5 L 0,5.75 Z" /></g><g
       transform="translate(21.875,54.9792)"
       id="g120"><path
         id="path122"
         style="fill:#5837d0;fill-opacity:1;fill-rule:nonzero;stroke:none"
         d="M 0,0 42,-18 102.375,7.125 65,20.125 Z" /></g><g
       transform="translate(21.875,53.2292)"
       id="g124"><path
         id="path126"
         style="fill:#ffffff;fill-opacity:1;fill-rule:nonzero;stroke:none"
         d="M 0,0 V -3.125 L 40.375,-20.75 V -17 Z" /></g><g
       transform="translate(30.25,55.4587)"
       id="g128"><path
         id="path130"
         style="fill:#a8a578;fill-opacity:1;fill-rule:nonzero;stroke:none"
         d="m 0,0 v 1.625 l 32.25,-13.75 V 0 L 0,12.75 V 14 L 33.875,0.937 V -14.75 Z" /></g><g
       transform="translate(31.375,67.7634)"
       id="g132"><path
         id="path134"
         style="fill:#ede6d8;fill-opacity:1;fill-rule:nonzero;stroke:none"
         d="M 0,0 V -11.159 L 31.125,-24.43 v 12.125 z" /></g><g
       transform="translate(64.125,56.3962)"
       id="g136"><path
         id="path138"
         style="fill:#a8a578;fill-opacity:1;fill-rule:nonzero;stroke:none"
         d="m 0,0 v -15.688 l 51.125,22 v 13.792 z" /></g><g
       transform="translate(64.125,56.3962)"
       id="g140"><path
         id="path142"
         style="fill:#e6e5a3;fill-opacity:1;fill-rule:nonzero;stroke:none"
         d="M 0,0 -33.875,13.063 19.776,29.601 51.125,20.104" /></g><g
       transform="translate(33.2603,71.7917)"
       id="g144"><path
         id="path146"
         style="fill:#005757;fill-opacity:1;fill-rule:nonzero;stroke:none"
         d="M 0,0 V 1.75 L 32.375,-11 v 6.972 L 0,8.125 V 10 L 33.875,-2.333 v -10.855 z" /></g><g
       transform="translate(34.1455,73.193)"
       id="g148"><path
         id="path150"
         style="fill:#ede6d8;fill-opacity:1;fill-rule:nonzero;stroke:none"
         d="M 0,0 V 6.392 L 31.49,-5.43 v -6.971 z" /></g><g
       transform="translate(67.1357,58.6042)"
       id="g152"><path
         id="path154"
         style="fill:#005757;fill-opacity:1;fill-rule:nonzero;stroke:none"
         d="M 0,0 54,21.687 V 31.812 L 0,10.854 Z" /></g><g
       transform="translate(121.1357,90.4167)"
       id="g156"><path
         id="path158"
         style="fill:#009494;fill-opacity:1;fill-rule:nonzero;stroke:none"
         d="M 0,0 -54,-20.958 -87.875,-8.625 -34.673,9.886 Z" /></g><g
       id="g160"><g
         clip-path="url(#clipPath166)"
         id="g162"><g
           transform="translate(54.3037,87.5871)"
           id="g168"><path
             id="path170"
             style="fill:#45444a;fill-opacity:1;fill-rule:nonzero;stroke:none"
             d="M 0,0 -0.022,16.178 21.77,5.933 21.667,-11 c 0,0 -4.022,-0.822 -12.023,2.581 C 1.61,-5.002 0,0 0,0" /></g><g
           transform="translate(77.1455,76.7018)"
           id="g172"><path
             id="path174"
             style="fill:#37363b;fill-opacity:1;fill-rule:nonzero;stroke:none"
             d="m 0,0 c 0,0 5.719,0.396 11.053,2.48 6.63,2.59 9.75,6.914 9.75,6.914 V 26.23 L 0,16.313 V 0" /></g><g
           transform="translate(76.0732,93.467)"
           id="g176"><path
             id="path178"
             style="fill:#3c3b40;fill-opacity:1;fill-rule:nonzero;stroke:none"
             d="m 0,0 1.083,-0.452 v -16.281 l -1.187,-0.125 z" /></g><g
           transform="translate(32.1978,111.9391)"
           id="g180"><path
             id="path182"
             style="fill:#58555e;fill-opacity:1;fill-rule:nonzero;stroke:none"
             d="m 0,0 v 2.826 l 44.948,-19.169 v -2.581 z" /></g><g
           transform="translate(77.1455,93.0153)"
           id="g184"><path
             id="path186"
             style="fill:#58555e;fill-opacity:1;fill-rule:nonzero;stroke:none"
             d="M 0,0 42.803,18.375 V 21 L 0,2.581 Z" /></g><g
           transform="translate(32.1978,114.7653)"
           id="g188"><path
             id="path190"
             style="fill:#837e8c;fill-opacity:1;fill-rule:nonzero;stroke:none"
             d="M 0,0 43.773,18 87.75,-0.75 44.948,-19.169 Z" /></g></g></g><g
       transform="translate(76.0732,114.3766)"
       id="g192"><path
         id="path194"
         style="fill:#e19f1a;fill-opacity:1;fill-rule:nonzero;stroke:none"
         d="M 0,0 V 1.611 L 31.219,-5.275 29.927,-6.014 Z" /></g><g
       transform="translate(106.5,86.863)"
       id="g196"><path
         id="path198"
         style="fill:#e19f1a;fill-opacity:1;fill-rule:nonzero;stroke:none"
         d="M 0,0 -0.5,21.5 0.792,22.238 0.875,0 Z" /></g><g
       id="g200"><g
         clip-path="url(#clipPath206)"
         id="g202"><g
           transform="translate(106.083,86.6965)"
           id="g208"><path
             id="path210"
             style="fill:#cf9500;fill-opacity:1;fill-rule:nonzero;stroke:none"
             d="m 0,0 c -0.646,-0.53 -0.098,-2.25 -0.583,-4.025 -0.401,-1.466 -0.88,-1.098 -1.083,-2.392 -0.186,-1.18 0.36,-2.887 1.75,-3.416 1.615,-0.617 3.815,0.64 3.833,1.916 C 3.95,-5.5 3.084,-5.628 2.584,-4 c -0.293,0.953 0.474,1.405 0.25,2.5 -0.09,0.436 -0.265,1.292 -1,1.667 C 1.28,0.448 0.483,0.396 0,0" /></g></g></g><g
       id="g212"><g
         clip-path="url(#clipPath218)"
         id="g214"><g
           transform="translate(70.5146,18.818)"
           id="g220"><path
             id="path222"
             style="fill:#a9ee70;fill-opacity:1;fill-rule:nonzero;stroke:none"
             d="m 0,0 c 0.01,-8.07 -1.54,-10.5 4.468,-7.801 l 6.424,3.056 c 2.997,1.22 2.731,2.828 2.731,10.903 0,0 -0.887,5.045 -7.055,10.278 L 4.865,15.663 C 10.54,11.004 11.704,5.38 11.704,5.38 11.648,-2.81 12.511,-2.419 7.568,-4.651 0.288,-7.939 1.923,-7.206 1.942,0.878 c 0,0 -0.833,5.86 -6.102,10.704 L -6.013,10.745 C -0.765,5.849 0,0 0,0" /></g><g
           transform="translate(85.6045,15.8366)"
           id="g224"><path
             id="path226"
             style="fill:#a9ee70;fill-opacity:1;fill-rule:nonzero;stroke:none"
             d="m 0,0 v 9.803 c 0,0 0.22,1.902 -2.549,5.043 l 1.218,0.582 c 0.856,-0.736 1.31,-1.41 1.31,-1.41 0.062,2.208 2.12,2.975 3.747,3.708 3.93,1.768 5.045,1.479 7.337,-2.902 0.482,-0.923 0,-9.824 0,-9.824 L 9.526,4.306 c 0,0 0.349,9.191 0,9.823 C 7.529,17.753 6.342,16.812 4.46,16.067 0.077,14.332 1.729,12.622 1.729,10.599 V 0.781 Z" /></g><g
           transform="translate(98.2266,21.5417)"
           id="g228"><path
             id="path230"
             style="fill:#a9ee70;fill-opacity:1;fill-rule:nonzero;stroke:none"
             d="m 0,0 v 9.804 l 1.445,0.652 V 0.653 Z" /></g><g
           transform="translate(98.2266,31.3454)"
           id="g232"><path
             id="path234"
             style="fill:#a9ee70;fill-opacity:1;fill-rule:nonzero;stroke:none"
             d="m 0,0 c 0,0 -1.224,2.669 -3.255,4.759 l 1.527,0.69 C 0.336,3.642 1.445,0.652 1.445,0.652 Z" /></g><g
           transform="translate(94.1523,37.0466)"
           id="g236"><path
             id="path238"
             style="fill:#a9ee70;fill-opacity:1;fill-rule:nonzero;stroke:none"
             d="m 0,0 1.487,0.672 c 0,0 -0.508,0.901 -1.214,1.44 L -1.216,1.439 C -0.637,1.056 0,0 0,0" /></g><g
           transform="translate(101.2373,22.903)"
           id="g240"><path
             id="path242"
             style="fill:#a9ee70;fill-opacity:1;fill-rule:nonzero;stroke:none"
             d="m 0,0 -0.001,9.826 c -0.688,3.02 -3.278,6.813 -6.733,10.4 l 1.989,0.713 C 4.808,17.697 5.575,16.743 7.43,13.181 l 2.621,-5.875 v 7.041 c -0.913,3.792 -3.505,6.302 -7.424,9.682 l 1.854,0.672 C 9.153,20.67 11.325,17.904 11.87,15.199 V 5.366 L 9.372,4.236 5.844,12.444 c -1.456,3.278 -5.261,5.007 -9.284,6.132 0,0 2.661,-0.937 5.274,-7.944 L 1.851,0.837 Z" /></g><g
           transform="translate(114.5215,30.6364)"
           id="g244"><path
             id="path246"
             style="fill:#a9ee70;fill-opacity:1;fill-rule:nonzero;stroke:none"
             d="m 0,0 v 8.052 c -0.167,2.186 -0.997,2.667 -0.842,3.884 0.27,2.111 2.941,3.306 4.568,4.039 3.93,1.768 5.159,1.365 7.337,-2.902 0.219,-0.43 0.163,-3.043 -0.091,-3.291 C 10.555,9.373 1.729,5.624 1.729,5.624 v 1.688 c 0,0 7.548,3.152 7.792,3.507 0.234,0.339 0.095,1.395 0.005,1.559 -1.997,3.624 -3.22,2.768 -5.067,1.938 -5.697,-2.56 -2.71,-2.765 -2.73,-5.468 V 0.782 l 9.469,4.436 V 3.334 L 1.729,-0.97 C -0.49,-1.95 0.066,-0.64 0,0" /></g><g
           transform="translate(129.9424,37.694)"
           id="g248"><path
             id="path250"
             style="fill:#a9ee70;fill-opacity:1;fill-rule:nonzero;stroke:none"
             d="M 0,0 C 0.012,-1.723 1.472,-1.063 1.472,-1.063 L 4.991,0.528 5.009,2.258 2.112,0.937 C 1.895,0.838 1.648,1.001 1.655,1.24 l 0.218,7.722 c 0,0 -0.261,1.204 -1.598,3.39 l 3.103,1.404 c -0.136,0.44 -0.92,1.358 -1.169,1.468 l -2.947,-1.337 c -1.043,1.475 -2.085,2.777 -4.085,4.815 L -6.403,18 c 1.894,-2.09 2.904,-3.416 3.919,-4.9 l -2.514,-1.135 c 0.226,-0.192 0.811,-1.196 0.931,-1.645 l 2.578,1.238 c 1.307,-2.163 1.62,-3.325 1.62,-3.325 z" /></g></g></g></g></svg>