<?xml version="1.0" encoding="utf-8"?>
<!-- Generator: Adobe Illustrator 21.1.0, SVG Export Plug-In . SVG Version: 6.00 Build 0)  -->
<svg version="1.1"
	 id="Layer_1" xmlns:cc="http://creativecommons.org/ns#" xmlns:dc="http://purl.org/dc/elements/1.1/" xmlns:rdf="http://www.w3.org/1999/02/22-rdf-syntax-ns#"
	 xmlns="http://www.w3.org/2000/svg" xmlns:xlink="http://www.w3.org/1999/xlink" x="0px" y="0px" viewBox="0 0 400 200"
	 style="enable-background:new 0 0 400 200;" xml:space="preserve">
<style type="text/css">
	.st0{fill:#FFFFFF;}
</style>
<path d="M10,76.1c26.1,40.3,49.6,73.7,75.7,113.9c53.7-23.6,87.1-49.1,136.8-47.1c11.1,6.6,24.7,3.8,29.5-3.4
	c35.5-25.9,89.6-22.3,138-24.6L249.9,19.7c-45.5,0.4-72.1,0.9-100.9,32.4C118.9,26.6,66.3,41.7,10,76.1L10,76.1z"/>
<g transform="matrix(1.0476 0 0 .96054 -1.9522 19.011)">
	<path class="st0" d="M212.4,123.2c2.3-16.8,11.5-25.1,10.9-25.9c8.2,2.5,16,12.9,18.4,22.8c30.1-24.3,69.7-25.4,112.5-25.5
		c-3.4-10-4.6-19.8-2.4-27.2L244.7-7.8c-46.2,9-79.6-9.3-104.6,26.3C109-3.9,56.1,8,23.1,31.9l-2.5,28.3
		C43,95.8,65.4,131.4,87.8,167.1C127.5,146.2,174.2,119.4,212.4,123.2L212.4,123.2z"/>
</g>
<g transform="matrix(1.0476 0 0 .96054 -1.9522 19.011)">
	<path d="M245-9.4c-22.8,4.4-43.2,2.3-60.7,3.3c-17.1,1-32,5.4-44.6,22.6C128,8.4,113.5,5.1,98.3,5.3C93,5.4,87.7,5.9,82.3,6.7
		C61,10.1,39.4,19.4,22.7,31.5l-1.1,0.8l-1.9,29.1C42,97,65.4,134.3,87.8,169.9c39.7-20.9,88.8-48.2,126.1-44.4
		c1.1-8.2,4.2-15.8,6.5-20.2c1.2-2.2,2.2-3.9,3-5.1c0.3-0.4,0.4-0.7,0.6-1c7,2.9,14,12.4,16.2,21.3l0.6,2.3l1.8-1.5
		c29.6-23.9,68.7-25.1,111.6-25.2l2.1,0l-0.7-2c-3.3-9.8-4.5-19.4-2.4-26.3l0.5-1.8L245-9.4z M244.3-6.2l103.3,71.8
		c-4.1-0.3-8.2-0.5-12.3-0.6c-38.9-0.7-82.2,7.5-112,30.3l-81.2-77c12-16.5,25.7-20.5,42.4-21.5C201.4-4.1,221.3-1.8,244.3-6.2
		L244.3-6.2z M98.3,8.3c15.2-0.2,29.6,3.2,40.9,11.4l80.2,76c-59.7-1.9-100,21.1-128.2,41.1L25.6,33.1C41.8,21.7,62.4,12.9,82.8,9.7
		C88,8.9,93.2,8.4,98.3,8.3L98.3,8.3z M24.3,36.6L89,138.9l0,0l0.2,0.3v0c-0.1,1.2-0.2,2.7-0.4,4c-0.6,6.4-1.1,13.3-1.7,19.6
		c0,0.1,0,0.3,0,0.4C65.6,129,44.1,94.8,22.6,60.6L24.3,36.6z M328.1,68c2.4,0,4.8,0,7.2,0c5,0.1,9.9,0.4,14.7,0.8
		c-1.6,7.1-0.5,15.6,2.2,24.4c-41.4,0.1-79.9,1.5-109.8,24.6c-2.7-8.7-8.8-17.2-16.1-20.8C253.4,76.8,292.1,68.4,328.1,68L328.1,68z
		 M211.8,98.6c3,0,6,0.1,9.1,0.2c-0.8,1.2-1.9,2.9-3,5.2c-2.3,4.3-4.9,10.6-6.2,18.5c-37.9-3.1-83,22.4-121.7,42.8
		c0-0.2,0-0.5,0.1-0.7c0.7-7.1,1.2-15.1,1.9-22c0.1-0.9,0.2-2,0.3-2.9C119.1,120.5,156.5,98.7,211.8,98.6L211.8,98.6z"/>
</g>
<g transform="translate(0.000000,1280.000000) scale(0.100000,-0.100000)">
	<path d="M1282.1,12424c-103.6-7.2-196.8-63.3-251.6-151.6c-16.1-25.8-28.7-54.5-36.6-83.3c-21.1-76.6-13.6-157.7,21.1-228.1
		c13.2-26.8,25.8-45.7,46.8-70.6c2.4-2.8,52.1-67.6,110.5-143.8c63.5-83,107.6-140,109.9-142c12.9-11.8,30.6-11.8,43.5,0
		c2.3,2.1,46.4,59,109.9,142c58.4,76.2,108.1,140.9,110.5,143.8c21,24.9,33.6,43.8,46.8,70.6c39.2,79.4,43.5,173.2,12,255.8
		c-24.4,63.9-66.9,116.9-124.5,155.2C1423.3,12409.9,1351.4,12428.7,1282.1,12424z M1320.8,12267.9c15.5-2,27.6-5.6,41.6-12.5
		c38.3-18.6,64.4-52.3,73.5-95.1c1.7-8,1.9-10,1.9-25.3c0-18.5-0.7-23.9-4.8-38.4c-11.1-38.8-40.6-71.4-78.2-86.7
		c-13.9-5.7-25.3-8.3-41-9.6c-20.4-1.7-41,1.6-60.8,9.6c-37.7,15.3-67.1,47.9-78.2,86.7c-4.2,14.5-4.8,19.9-4.8,38.4
		c0.1,15.3,0.2,17.3,1.9,25.3c7.8,36.5,28.1,66.8,58.3,86.7c12.3,8,30.2,15.7,44.1,18.8C1288.7,12269,1306.6,12269.8,1320.8,12267.9
		z"/>
</g>
<g transform="translate(0.000000,1280.000000) scale(0.100000,-0.100000)">
	<path d="M2804.8,12602.7c-74.1-5.2-140.8-45.3-180-108.4c-11.5-18.5-20.5-39-26.2-59.6c-15.1-54.8-9.8-112.8,15.1-163.2
		c9.5-19.2,18.4-32.7,33.5-50.5c1.7-2,37.3-48.3,79-102.9c45.5-59.4,77-100.1,78.6-101.6c9.2-8.4,21.9-8.4,31.1,0
		c1.6,1.5,33.2,42.2,78.6,101.6c41.7,54.5,77.3,100.8,79,102.9c15.1,17.8,24,31.3,33.5,50.5c28,56.8,31.1,123.9,8.6,183
		c-17.5,45.7-47.9,83.6-89,111C2905.8,12592.7,2854.4,12606.1,2804.8,12602.7z M2832.5,12491.1c11.1-1.4,19.7-4,29.8-8.9
		c27.4-13.3,46.1-37.4,52.6-68c1.2-5.7,1.3-7.2,1.4-18.1c0-13.2-0.5-17.1-3.5-27.5c-8-27.8-29-51.1-56-62c-10-4.1-18.1-5.9-29.3-6.9
		c-14.6-1.2-29.4,1.1-43.5,6.9c-26.9,10.9-48,34.3-56,62c-3,10.4-3.5,14.3-3.5,27.5c0,10.9,0.1,12.4,1.4,18.1
		c5.5,26.1,20.1,47.8,41.7,62c8.8,5.7,21.6,11.2,31.5,13.4C2809.6,12491.9,2822.4,12492.5,2832.5,12491.1z"/>
</g>
<g transform="translate(0.000000,1280.000000) scale(0.100000,-0.100000)">
	<path d="M638.3,12524.4c-54.5-3.8-103.5-33.3-132.4-79.8c-8.4-13.6-15.1-28.7-19.3-43.8c-11.1-40.3-7.2-83,11.1-120
		c7-14.1,13.5-24,24.6-37.1c1.2-1.5,27.4-35.5,58.1-75.6c33.4-43.7,56.6-73.6,57.8-74.7c6.8-6.2,16.1-6.2,22.9,0
		c1.2,1.1,24.4,31.1,57.8,74.7c30.7,40.1,56.9,74.1,58.1,75.6c11.1,13.1,17.7,23.1,24.6,37.1c20.6,41.8,22.9,91.1,6.3,134.6
		c-12.9,33.6-35.2,61.5-65.5,81.6C712.5,12517,674.7,12526.9,638.3,12524.4z M658.6,12442.3c8.2-1.1,14.5-2.9,21.9-6.6
		c20.1-9.8,33.9-27.5,38.7-50c0.9-4.2,1-5.3,1-13.3c0-9.7-0.4-12.6-2.5-20.2c-5.9-20.4-21.3-37.6-41.2-45.6
		c-7.3-3-13.3-4.4-21.6-5.1c-10.7-0.9-21.6,0.8-32,5.1c-19.8,8-35.3,25.2-41.2,45.6c-2.2,7.6-2.5,10.5-2.5,20.2c0,8,0.1,9.1,1,13.3
		c4.1,19.2,14.8,35.1,30.7,45.6c6.4,4.2,15.9,8.3,23.2,9.9C641.8,12442.9,651.1,12443.3,658.6,12442.3z"/>
</g>
<g transform="translate(0.000000,1280.000000) scale(0.100000,-0.100000)">
	<path d="M2099.9,12749.3c-80.3-5.6-152.7-49.1-195.2-117.6c-12.5-20-22.2-42.3-28.4-64.7c-16.4-59.5-10.6-122.3,16.4-177
		c10.3-20.8,20-35.4,36.3-54.8c1.8-2.2,40.4-52.4,85.7-111.5c49.3-64.4,83.5-108.6,85.3-110.2c10-9.1,23.7-9.1,33.7,0
		c1.8,1.6,36,45.8,85.3,110.2c45.3,59.1,83.9,109.3,85.7,111.5c16.3,19.3,26,34,36.3,54.8c30.4,61.6,33.8,134.4,9.3,198.4
		c-19,49.6-51.9,90.7-96.6,120.4C2209.5,12738.4,2153.7,12753,2099.9,12749.3z M2129.9,12628.3c12-1.6,21.4-4.4,32.3-9.7
		c29.7-14.4,50-40.6,57-73.8c1.3-6.2,1.4-7.8,1.5-19.7c0-14.3-0.5-18.5-3.8-29.8c-8.6-30.1-31.5-55.4-60.7-67.3
		c-10.8-4.4-19.6-6.4-31.8-7.5c-15.8-1.3-31.8,1.2-47.2,7.5c-29.2,11.9-52,37.2-60.7,67.3c-3.2,11.3-3.8,15.5-3.8,29.8
		c0.1,11.9,0.2,13.4,1.5,19.7c6,28.3,21.8,51.8,45.2,67.2c9.5,6.2,23.5,12.2,34.2,14.6
		C2105.1,12629.1,2118.9,12629.7,2129.9,12628.3z"/>
</g>
</svg>
