<?xml version="1.0" encoding="utf-8"?>
<!-- Generator: Adobe Illustrator 21.1.0, SVG Export Plug-In . SVG Version: 6.00 Build 0)  -->
<svg version="1.1" xmlns="http://www.w3.org/2000/svg" xmlns:xlink="http://www.w3.org/1999/xlink" x="0px" y="0px"
	 viewBox="0 0 174.7 177.3" style="enable-background:new 0 0 174.7 177.3;" xml:space="preserve">
<style type="text/css">
	.st0{fill:#27272F;}
	.st1{display:none;}
	.st2{display:inline;fill:#13131B;}
	.st3{display:inline;fill:#27272F;}
	.st4{display:inline;fill:#46464E;}
	.st5{display:inline;fill:#A9EE70;}
	.st6{fill:#13131B;}
	.st7{fill:#46464E;}
	.st8{fill:#FF0000;stroke:#000000;stroke-width:0.25;stroke-miterlimit:10;}
	.st9{fill:#A9EE70;}
	.st10{fill:#1B84DB;}
	.st11{fill:#392791;}
	.st12{fill:#5837D0;}
	.st13{fill:#FFFFFF;}
	.st14{fill:#A8A578;}
	.st15{fill:#EDE6D8;}
	.st16{fill:#E6E5A3;}
	.st17{fill:#005757;}
	.st18{fill:#009494;}
	.st19{fill:#45444A;}
	.st20{fill:#37363B;}
	.st21{fill:#3C3B40;}
	.st22{fill:#58555E;}
	.st23{fill:#837E8C;}
	.st24{fill:#E19F1A;}
	.st25{fill:#CF9500;}
</style>
<g id="Router">
	<g id="tubo_copy">
		<path class="st0" d="M131.9,106.3c0-13.4-1.1-63.6-1.1-63.6s0.2-6,2.6-7.5c1.8-1.1,3.1,3.1,3.3,6.8c0.6,11.6,0.6,67.3,0.6,67.3"/>
	</g>
	<g id="tubo">
		<path class="st0" d="M122,112.5c2.7-1.7,11.6-7.2,11.6-7.2s1.3-0.6,2.9,1.3c1.2,1.4,1,3,0.3,3.7c-2.1,2-11.4,7.8-11.4,7.8"/>
		<ellipse transform="matrix(0.931 -0.365 0.365 0.931 -34.1558 54.1092)" class="st0" cx="126.1" cy="117.4" rx="2.8" ry="3.3"/>
	</g>
	<g id="caja" class="st1">
		<path id="Costado" class="st2" d="M17,131.9c0,0-3.4,10.1-1.2,12.2c1.1,1,19.5,15.2,26.9,18.7c1.7,0.8,6.7,2,7.1,2
			c1.5-0.3-2.4-15.3-2.4-15.3s-3.6-1.9-4.6-2.2C35.4,145.2,17,131.9,17,131.9z"/>
		<path id="Frente" class="st3" d="M137.5,111.6l4.6,14.5c0,0-3.8,3.1-5.3,3.9c-13.4,7.6-42.6,17.7-56.8,23.7
			c-4.5,1.9-13.1,6.4-17.7,8c-3.1,1.1-12.4,3.2-12.5,3.2c-0.2,0-2.4-15.3-2.4-15.3s7.1-1.3,9-1.7c21.1-3.7,77.5-32.6,77.5-32.6
			L137.5,111.6z"/>
		<path id="Arriba" class="st4" d="M137.5,111.6L106,99.5l-16.9,5.4l-4.9,2.1l-63.1,21.5c0,0-4.1,2.1-4.2,3.5
			c0,1.7,5.6,5.9,17.5,12.2c11.4,6.1,12.8,5.3,12.8,5.3s9.2,0.5,24.5-4.5c8.2-2.7,48.3-19.5,62-29.8
			C134.9,114.4,137.5,111.6,137.5,111.6z"/>
		<path class="st5" d="M33.9,152.1c0-0.4,0.5-1.2,0.8-1.5c0.3-0.3,1.1-0.5,1.4-0.5c0.3,0,0.8,0.4,1,0.6c0.1,0.2,0,0.8,0,1.1
			c-0.1,0.4-0.4,1.2-0.6,1.5c-0.2,0.2-0.7,0.5-0.9,0.5c-0.3,0-0.8-0.5-1.1-0.8C34.3,152.8,34,152.4,33.9,152.1z"/>
		<path class="st5" d="M18.2,141.8c-0.1-0.3-0.1-1.1,0.1-1.4c0.2-0.4,0.8-1.2,1.3-1.3c0.3-0.2,1.1-0.2,1.5,0
			c0.3,0.1,0.8,0.8,0.9,1.1c0.1,0.4,0,1.3-0.1,1.7c-0.1,0.3-0.4,0.9-0.7,1.1c-0.3,0.2-1.2,0.1-1.6,0
			C19.1,142.8,18.4,142.2,18.2,141.8z"/>
		<path class="st5" d="M23.3,145.9c-0.1-0.3-0.1-1,0-1.3c0.2-0.4,0.9-1.1,1.3-1.2c0.3-0.1,1-0.2,1.4,0c0.3,0.1,0.7,0.6,0.8,0.9
			c0.1,0.4,0,1.2-0.1,1.6c-0.1,0.3-0.4,0.8-0.6,0.9c-0.4,0.2-1.2,0.1-1.6,0C24.1,146.7,23.5,146.3,23.3,145.9z"/>
		<path class="st5" d="M28.8,148.4c0-0.3,0.2-0.9,0.4-1.2c0.3-0.3,1-0.7,1.4-0.7c0.3,0,0.9,0.3,1.1,0.5c0.2,0.2,0.3,0.8,0.3,1.1
			c0,0.4-0.4,1.1-0.6,1.4c-0.2,0.2-0.6,0.6-0.9,0.6c-0.3,0-0.9-0.4-1.1-0.6C29,149.4,28.8,148.7,28.8,148.4z"/>
	</g>
</g>
<g id="Caja">
	<path class="st6" d="M62.6,172.4c0.1,3-55.6-25.3-55.6-28.8v-10.3c10.4-6.8,55.7,15.4,55.7,28.7L62.6,172.4z"/>
	<path class="st7" d="M7,133.4C8.6,128.2,85.3,98,85.3,98c11.3-5,28.7,5.2,30.2,6c2.1,1.1,25.4,13,25.5,22.7L62.7,162
		c0,0-0.4-10.6-25.1-22.5C14,128.2,7,133.4,7,133.4z"/>
	<polygon class="st0" points="62.6,172.4 62.7,162 141,126.6 140.9,137 	"/>
	<path class="st8" d="M54.1,158.9"/>
	<path class="st8" d="M-1.6,130.2"/>
	<g id="Layer_13">
		<path class="st9" d="M53.4,157.6L53.4,157.6c-1.7-0.9-1.7-0.9-1.7,2.5l0,0c0,3,0,3,1.7,3.9l0,0c1.6,0.9,1.6,0.9,1.6-2.7l0,0
			C55.1,158.4,55.1,158.4,53.4,157.6z"/>
		<path class="st9" d="M33.6,147.3L33.6,147.3c-1.7-0.9-1.7-0.9-1.7,2.5l0,0c0,3,0,3,1.7,3.9l0,0c1.6,0.9,1.6,0.9,1.6-2.7l0,0
			C35.2,148.2,35.2,148.2,33.6,147.3z"/>
		<path class="st9" d="M27.9,144.3L27.9,144.3c-1.7-0.9-1.7-0.9-1.7,2.5l0,0c0,3,0,3,1.7,3.9l0,0c1.6,0.9,1.6,0.9,1.6-2.7l0,0
			C29.5,145.1,29.5,145.1,27.9,144.3z"/>
		<path class="st9" d="M22.2,141.2L22.2,141.2c-1.7-0.9-1.7-0.9-1.7,2.5l0,0c0,3,0,3,1.7,3.9l0,0c1.6,0.9,1.6,0.9,1.6-2.7l0,0
			C23.8,142.1,23.8,142.1,22.2,141.2z"/>
		<path class="st9" d="M16.4,138.2L16.4,138.2c-1.7-0.9-1.7-0.9-1.7,2.5l0,0c0,3,0,3,1.7,3.9l0,0c1.6,0.9,1.6,0.9,1.6-2.7l0,0
			C18.1,139,18.1,139,16.4,138.2z"/>
	</g>
</g>
<g id="wifi1">
	<path id="path3824" inkscape:connector-curvature="0" class="st10" d="M161.2,52.8c2.4-5.6,2.5-11.6,0.5-16.6l-3.6,0.6
		c1.9,3.9,1.9,9.2-0.4,14.4c-2.2,5.1-6.1,8.7-10.2,10l1.9,3.2C154.5,62.5,158.8,58.4,161.2,52.8z"/>
	<path id="path3822" inkscape:connector-curvature="0" class="st10" d="M146.5,46.1c1.1-2.4,1.1-5,0.4-7.4l-3.2,0.5
		c0.5,1.7,0.4,3.7-0.3,5.5c-0.7,1.7-2,3-3.5,3.8l1.7,2.8C143.7,50.2,145.5,48.4,146.5,46.1z"/>
	<path id="path3814" inkscape:connector-curvature="0" class="st10" d="M153.8,49.7c1.9-4.3,1.9-8.8,0.4-12.2l-3.8,0.6
		c1.5,2.7,1.7,6.5,0.1,10.1c-1.5,3.3-4,5.7-6.8,6.6l2,3.2C149,56.7,152,53.7,153.8,49.7z"/>
</g>
<g id="wifi2">
	<path id="path3824_1_" inkscape:connector-curvature="0" class="st10" d="M109.1,22.1c-3.1,5.3-3.8,11.3-2.4,16.4l3.7-0.2
		c-1.4-4.1-0.8-9.4,2-14.2c2.8-4.8,7.1-8,11.3-8.8l-1.6-3.4C116.9,13.3,112.2,16.8,109.1,22.1z"/>
	<path id="path3814_1_" inkscape:connector-curvature="0" class="st10" d="M116.1,26.1c-2.3,4-2.9,8.5-1.8,12.1l3.9-0.2
		c-1.2-2.8-0.9-6.6,1.1-10.1c1.8-3.2,4.7-5.2,7.5-5.8l-1.6-3.4C121.7,19.6,118.3,22.3,116.1,26.1z"/>
	<path id="path3822_1_" inkscape:connector-curvature="0" class="st10" d="M122.9,30.5c-1.3,2.3-1.7,4.9-1.2,7.3l3.3-0.2
		c-0.3-1.8,0-3.7,1-5.4c0.9-1.6,2.3-2.7,3.9-3.4l-1.4-3C126.2,26.7,124.2,28.3,122.9,30.5z"/>
</g>
<g id="L1">
	<polygon class="st11" points="21.9,128.6 63.9,146.9 63.9,140.4 21.9,122.4 21.9,124.1 62.3,141.1 62.3,144.9 21.9,127.2 	"/>
	<polygon class="st11" points="124.3,121 63.9,146.9 63.9,140.4 124.3,115.2 	"/>
	<polygon class="st12" points="21.9,122.4 63.9,140.4 124.3,115.2 86.9,102.2 	"/>
	<polygon class="st13" points="21.9,124.1 21.9,127.2 62.3,144.9 62.3,141.1 	"/>
</g>
<g id="L2">
	<polygon class="st14" points="30.3,121.9 30.3,120.3 62.5,134 62.5,121.9 30.3,109.1 30.3,107.9 64.1,120.9 64.1,136.6 	"/>
	<polygon class="st15" points="31.4,109.6 31.4,120.7 62.5,134 62.5,121.9 	"/>
	<polygon class="st14" points="64.1,120.9 64.1,136.6 115.3,114.6 115.3,100.8 	"/>
	<polyline class="st16" points="64.1,120.9 30.3,107.9 83.9,91.3 115.3,100.8 	"/>
</g>
<g id="L3">
	<polygon class="st17" points="33.3,105.5 33.3,103.8 65.6,116.5 65.6,109.6 33.3,97.4 33.3,95.5 67.1,107.9 67.1,118.7 	"/>
	<polyline class="st15" points="34.1,104.1 34.1,97.7 65.6,109.6 65.6,116.5 34.1,104.1 	"/>
	<polyline class="st17" points="67.1,118.7 121.1,97 121.1,86.9 67.1,107.9 67.1,118.7 	"/>
	<polyline class="st18" points="121.1,86.9 67.1,107.9 33.3,95.5 86.5,77 121.1,86.9 	"/>
</g>
<g id="gorro">
	<path class="st19" d="M54.3,89.7l0-16.2l21.8,10.2L76,100.7c0,0-4,0.8-12-2.6C55.9,94.7,54.3,89.7,54.3,89.7z"/>
	<path class="st20" d="M77.1,100.6c0,0,5.7-0.4,11.1-2.5c6.6-2.6,9.8-6.9,9.8-6.9V74.4l-20.8,9.9V100.6"/>
	<polygon class="st21" points="76.1,83.9 77.2,84.3 77.2,100.6 76,100.7 	"/>
	<polygon class="st22" points="32.2,65.4 32.2,62.6 77.1,81.7 77.1,84.3 	"/>
	<polyline class="st22" points="77.1,84.3 119.9,65.9 119.9,63.3 77.1,81.7 77.1,84.3 	"/>
	<polyline class="st23" points="32.2,62.6 76,44.6 119.9,63.3 77.1,81.7 32.2,62.6 	"/>
</g>
<g id="hilo">
	<polygon class="st24" points="76.1,63 76.1,61.3 107.3,68.2 106,69 	"/>
	<polygon class="st24" points="106.5,90.5 106,69 107.3,68.2 107.4,90.5 	"/>
	<path class="st25" d="M106.1,90.6c-0.6,0.5-0.1,2.3-0.6,4c-0.4,1.5-0.9,1.1-1.1,2.4c-0.2,1.2,0.4,2.9,1.8,3.4
		c1.6,0.6,3.8-0.6,3.8-1.9c0-2.4-0.8-2.3-1.3-3.9c-0.3-1,0.5-1.4,0.3-2.5c-0.1-0.4-0.3-1.3-1-1.7C107.4,90.2,106.6,90.2,106.1,90.6z
		"/>
</g>
<g id="Nombre">
	<path class="st9" d="M70.5,158.5c0,8.1-1.5,10.5,4.5,7.8l6.4-3.1c3-1.2,2.7-2.8,2.7-10.9c0,0-0.9-5-7.1-10.3l-1.7,0.8
		c5.7,4.7,6.8,10.3,6.8,10.3c-0.1,8.2,0.8,7.8-4.1,10c-7.3,3.3-5.6,2.6-5.6-5.5c0,0-0.8-5.9-6.1-10.7l-1.9,0.8
		C69.8,152.7,70.5,158.5,70.5,158.5z"/>
	<path class="st9" d="M85.6,161.5v-9.8c0,0,0.2-1.9-2.5-5l1.2-0.6c0.9,0.7,1.3,1.4,1.3,1.4c0.1-2.2,2.1-3,3.7-3.7
		c3.9-1.8,5-1.5,7.3,2.9c0.5,0.9,0,9.8,0,9.8l-1.5,0.7c0,0,0.3-9.2,0-9.8c-2-3.6-3.2-2.7-5.1-1.9c-4.4,1.7-2.7,3.4-2.7,5.5v9.8
		L85.6,161.5z"/>
	<polygon class="st9" points="98.2,155.8 98.2,146 99.7,145.3 99.7,155.1 	"/>
	<path class="st9" d="M98.2,146c0,0-1.2-2.7-3.3-4.8l1.5-0.7c2.1,1.8,3.2,4.8,3.2,4.8L98.2,146z"/>
	<path class="st9" d="M94.2,140.3l1.5-0.7c0,0-0.5-0.9-1.2-1.4l-1.5,0.7C93.5,139.2,94.2,140.3,94.2,140.3z"/>
	<path class="st9" d="M101.2,154.4l0-9.8c-0.7-3-3.3-6.8-6.7-10.4l2-0.7c9.6,3.2,10.3,4.2,12.2,7.8l2.6,5.9v-7
		c-0.9-3.8-3.5-6.3-7.4-9.7l1.9-0.7c4.7,4,6.8,6.8,7.4,9.5v9.8l-2.5,1.1l-3.5-8.2c-1.5-3.3-5.3-5-9.3-6.1c0,0,2.7,0.9,5.3,7.9l0,9.8
		L101.2,154.4z"/>
	<path class="st9" d="M114.5,146.7v-8.1c-0.2-2.2-1-2.7-0.8-3.9c0.3-2.1,2.9-3.3,4.6-4c3.9-1.8,5.2-1.4,7.3,2.9
		c0.2,0.4,0.2,3-0.1,3.3c-0.4,0.4-9.2,4.2-9.2,4.2v-1.7c0,0,7.5-3.2,7.8-3.5c0.2-0.3,0.1-1.4,0-1.6c-2-3.6-3.2-2.8-5.1-1.9
		c-5.7,2.6-2.7,2.8-2.7,5.5v8.1l9.5-4.4v1.9l-9.5,4.3C114,148.6,114.6,147.3,114.5,146.7z"/>
	<path class="st9" d="M129.9,139.6c0,1.7,1.5,1.1,1.5,1.1l3.5-1.6l0-1.7l-2.9,1.3c-0.2,0.1-0.5-0.1-0.5-0.3l0.2-7.7
		c0,0-0.3-1.2-1.6-3.4l3.1-1.4c-0.1-0.4-0.9-1.4-1.2-1.5l-2.9,1.3c-1-1.5-2.1-2.8-4.1-4.8l-1.6,0.7c1.9,2.1,2.9,3.4,3.9,4.9
		l-2.5,1.1c0.2,0.2,0.8,1.2,0.9,1.6l2.6-1.2c1.3,2.2,1.6,3.3,1.6,3.3L129.9,139.6z"/>
</g>
</svg>
